<svg width="292" height="304" fill="none" xmlns="http://www.w3.org/2000/svg"><g clip-path="url(#clip0_15192_58)" fill-rule="evenodd" clip-rule="evenodd" fill="#fff"><path d="M144.101.16L.837 50.375l21.887 186.491 121.366 66.305 123.301-67.191 23.823-186.49L144.101.158zm-89.053 230.8l89.276-195.42 93.581 195.981-31.873-.561-19.62-44.648h-80.087L88.401 230.4l-33.353.56zm119.68-70.764l-30.176-62.048-26.544 62.048h56.72z"/><path d="M145 0l147.113 49.331-23.811 186.592L145 303.001V186.312h41.412l19.62 44.648 31.873.561L145 36.955V0zm0 160.196V99.069l29.728 61.127H145z"/></g><defs><clipPath id="clip0_15192_58"><path fill="#fff" transform="translate(.837 .16)" d="M0 0h290.377v303.002H0z"/></clipPath></defs></svg>