<svg width="24" height="28" fill="none" xmlns="http://www.w3.org/2000/svg"><path d="M0 24.677c0 1.567 1.303 2.853 2.893 2.853h18.214c1.59 0 2.893-1.286 2.893-2.853V12.354H0v12.323zm17.865-9.94c1.08 0 1.97.878 1.97 1.944 0 1.066-.89 1.944-1.97 1.944s-1.971-.878-1.971-1.944c0-1.066.89-1.944 1.97-1.944zm-5.88 0c1.08 0 1.97.878 1.97 1.944 0 1.066-.89 1.944-1.97 1.944-1.082 0-1.972-.878-1.972-1.944 0-1.066.89-1.944 1.971-1.944zm0 5.299c1.08 0 1.97.878 1.97 1.944 0 1.066-.89 1.913-1.97 1.913-1.082 0-1.972-.878-1.972-1.944 0-1.067.89-1.913 1.971-1.913zm-5.882 0c1.081 0 1.971.878 1.971 1.944 0 1.066-.89 1.913-1.97 1.913-1.081 0-1.972-.878-1.972-1.944 0-1.067.89-1.913 1.971-1.913zM24 5.968c0-1.534-1.305-2.793-2.897-2.793h-.668v.952c0 2.056-1.75 3.744-3.883 3.744S12.7 6.183 12.7 4.127v-.952h-1.4v.952c0 2.056-1.75 3.744-3.884 3.744-2.132 0-3.851-1.688-3.851-3.744v-.952h-.668C1.305 3.175 0 4.434 0 5.968v4.266h24V5.968z" fill="#fff"/><path d="M7.415 6c.968 0 1.765-.908 1.765-2.01V2.01C9.18.909 8.383 0 7.415 0 6.447 0 5.65.908 5.65 2.01v2.012C5.68 5.092 6.447 6 7.415 6zm8.995 0c1.064 0 1.941-.908 1.941-2.01V2.01C18.351.908 17.474 0 16.41 0c-1.065 0-1.941.908-1.941 2.01v2.012c0 1.07.876 1.978 1.94 1.978z" fill="#fff"/></svg>