<svg width="238" height="97" fill="none" xmlns="http://www.w3.org/2000/svg"><path d="M237.721 80.329a15.888 15.888 0 11-30.569-6.081 15.89 15.89 0 0125.915-5.155 15.889 15.889 0 014.654 11.236zm-47.553 6.052a41.27 41.27 0 00-38.857-71.534 41.272 41.272 0 00-27.26 45.836 41.27 41.27 0 0040.708 34.452 41.18 41.18 0 0025.409-8.754zM82.438 51.049V0a31.663 31.663 0 00-26.984 15.11A41.27 41.27 0 1082.54 53.88c0-.968-.043-1.907-.101-2.831zm20.295-19.256a15.73 15.73 0 00-15.716 15.73v47.67a31.678 31.678 0 0031.663-31.679V47.74a15.896 15.896 0 00-4.654-11.293 15.886 15.886 0 00-11.293-4.654zm.115-.13c8.744 0 15.832-7.088 15.832-15.831C118.68 7.088 111.592 0 102.848 0c-8.743 0-15.831 7.088-15.831 15.832 0 8.743 7.088 15.831 15.831 15.831z" fill="#fff"/></svg>