<svg width="271" height="264" fill="none" xmlns="http://www.w3.org/2000/svg"><path fill-rule="evenodd" clip-rule="evenodd" d="M135.49.396C60.784.396.394 60.786.394 135.492c0 59.719 38.695 110.268 92.375 128.162 6.71 1.342 9.17-2.908 9.17-6.487 0-3.131-.223-13.867-.223-25.05-37.577 8.052-45.405-16.104-45.405-16.104-6.039-15.657-14.986-19.683-14.986-19.683-12.301-8.276.895-8.276.895-8.276 13.644.895 20.801 13.867 20.801 13.867 12.078 20.578 31.537 14.763 39.366 11.184 1.118-8.723 4.697-14.762 8.499-18.117-29.971-3.132-61.509-14.762-61.509-66.653 0-14.762 5.368-26.841 13.868-36.235-1.342-3.355-6.04-17.222 1.342-35.786 0 0 11.407-3.58 37.129 13.867 10.736-2.908 22.366-4.473 33.774-4.473 11.407 0 23.037 1.565 33.773 4.473 25.722-17.446 37.129-13.867 37.129-13.867 7.381 18.564 2.684 32.431 1.342 35.786 8.723 9.394 13.868 21.473 13.868 36.235 0 51.891-31.537 63.298-61.733 66.653 4.921 4.249 9.171 12.301 9.171 25.051 0 18.117-.224 32.655-.224 37.128 0 3.579 2.46 7.829 9.17 6.487 53.681-17.894 92.375-68.443 92.375-128.162C270.585 60.787 209.971.396 135.49.396z" fill="#fff"/><path d="M51.616 194.318c-.224.672-1.343.895-2.238.448-.895-.448-1.567-1.343-1.12-2.015.224-.671 1.344-.895 2.239-.447.895.447 1.343 1.343 1.119 2.014zm5.369 6.041c-.672.671-2.014.223-2.686-.672-.895-.895-1.12-2.238-.448-2.91.672-.671 1.79-.223 2.686.672.895 1.119 1.12 2.462.448 2.91zm5.368 7.828c-.895.671-2.238 0-2.91-1.119-.895-1.119-.895-2.686 0-3.134.896-.671 2.239 0 2.91 1.12.895 1.119.895 2.462 0 3.133zm7.382 7.605c-.672.895-2.239.671-3.581-.448-1.12-1.119-1.567-2.686-.672-3.357.672-.895 2.238-.671 3.581.448 1.12.895 1.343 2.462.672 3.357zm10.065 4.249c-.224 1.119-1.79 1.567-3.357 1.119-1.567-.448-2.462-1.79-2.239-2.686.224-1.119 1.791-1.567 3.358-1.119 1.567.448 2.462 1.567 2.238 2.686zm10.96.893c0 1.119-1.344 2.015-2.91 2.015-1.567 0-2.91-.896-2.91-2.015 0-1.119 1.343-2.014 2.91-2.014 1.566 0 2.91.895 2.91 2.014zm10.288-1.789c.224 1.119-.895 2.238-2.462 2.462-1.566.224-2.91-.448-3.133-1.567-.224-1.119.895-2.238 2.462-2.462 1.567-.224 2.91.448 3.133 1.567z" fill="#fff"/></svg>