<svg width="274" height="304" fill="none" xmlns="http://www.w3.org/2000/svg"><path d="M137.048 303.164c-4.24 0-8.192-1.113-11.856-3.067l-37.55-21.996c-5.646-3.067-2.823-4.18-1.13-4.737 7.628-2.511 9.034-3.067 16.938-7.521.852-.557 1.982-.273 2.823.283l28.794 16.986c1.129.556 2.546.556 3.387 0l112.639-64.307c1.129-.556 1.694-1.67 1.694-3.067V87.43c0-1.397-.565-2.51-1.694-3.067L138.465 20.34c-1.129-.556-2.546-.556-3.388 0L22.439 84.373c-1.13.557-1.694 1.954-1.694 3.068V215.77c0 1.113.564 2.51 1.694 3.067l30.775 17.542c16.66 8.351 27.1-1.397 27.1-11.135V98.564c0-1.67 1.416-3.34 3.387-3.34h14.402c1.694 0 3.387 1.397 3.387 3.34v126.659c0 21.996-12.143 34.801-33.31 34.801-6.498 0-11.58 0-25.97-6.965l-29.646-16.701C5.214 232.188.697 224.394.697 216.043V87.713c0-8.35 4.517-16.144 11.856-20.325L125.192 3.082c7.062-3.897 16.66-3.897 23.712 0l112.639 64.306c7.339 4.18 11.856 11.975 11.856 20.326v128.329c0 8.351-4.517 16.145-11.856 20.325l-112.639 64.307c-3.664 1.659-7.904 2.489-11.856 2.489zm34.727-88.235c-49.406 0-59.568-22.268-59.568-41.197 0-1.67 1.416-3.34 3.387-3.34h14.679c1.694 0 3.111 1.113 3.111 2.783 2.258 14.759 8.756 21.996 38.679 21.996 23.712 0 33.874-5.294 33.874-17.815 0-7.237-2.823-12.531-39.808-16.145-30.775-3.067-49.97-9.748-49.97-33.96 0-22.552 19.195-35.913 51.376-35.913 36.133 0 53.923 12.248 56.181 38.97 0 .84-.288 1.67-.852 2.511-.565.556-1.417 1.113-2.258 1.113h-14.679c-1.417 0-2.823-1.113-3.111-2.511-3.387-15.315-12.144-20.325-35.291-20.325-25.971 0-29.082 8.907-29.082 15.588 0 8.078 3.676 10.578 38.679 15.032 34.727 4.453 51.1 10.861 51.1 34.8-.277 24.485-20.602 38.413-56.447 38.413z" fill="#fff"/></svg>