<svg width="24" height="24" fill="none" xmlns="http://www.w3.org/2000/svg"><path d="M0 24l1.687-6.163A11.867 11.867 0 01.1 11.891C.103 5.335 5.438 0 11.993 0a11.817 11.817 0 018.413 3.488 11.824 11.824 0 013.48 8.414c-.003 6.557-5.338 11.892-11.893 11.892a11.9 11.9 0 01-5.688-1.448L0 24zm17.984-9.271c-.074-.124-.272-.198-.57-.347-.297-.149-1.758-.868-2.031-.967-.272-.099-.47-.149-.669.149-.198.297-.768.967-.941 1.165-.173.198-.347.223-.644.074-.297-.149-1.255-.462-2.39-1.475-.883-.788-1.48-1.761-1.653-2.059-.173-.297-.018-.458.13-.606.134-.133.297-.347.446-.521.151-.172.2-.296.3-.495.099-.198.05-.372-.025-.521-.075-.148-.669-1.611-.916-2.206-.242-.579-.487-.501-.669-.51l-.57-.01c-.198 0-.52.074-.792.372S5.95 7.788 5.95 9.251s1.065 2.876 1.213 3.074c.149.198 2.095 3.2 5.076 4.487.709.306 1.263.489 1.694.626.712.226 1.36.194 1.872.118.571-.085 1.758-.719 2.006-1.413.248-.695.248-1.29.173-1.414z" fill="#55569E"/></svg>