<svg width="341" height="304" fill="none" xmlns="http://www.w3.org/2000/svg"><path d="M170.658 181.783c16.791 0 30.403-13.612 30.403-30.404 0-16.791-13.612-30.403-30.403-30.403-16.791 0-30.403 13.612-30.403 30.403 0 16.792 13.612 30.404 30.403 30.404z" fill="#fff"/><path d="M170.671 221.071c-42.697 0-80.04-5.049-107.988-14.594C24.279 193.349.42 172.24.42 151.376c0-20.1 22.082-39.8 59.07-52.697 30.328-10.573 69.81-16.397 111.177-16.397h.006c40.594 0 79.555 5.718 109.71 16.1 37.906 13.048 60.537 32.858 60.537 52.994 0 20.897-24.688 42.058-64.434 55.222-28.173 9.33-65.752 14.473-105.816 14.473zm0-124.244c-39.203 0-77.982 5.682-106.392 15.585-34.066 11.879-49.312 28.128-49.312 38.964 0 11.279 16.403 29.028 52.415 41.334 26.452 9.039 62.168 13.815 103.289 13.815 38.552 0 74.504-4.879 101.24-13.736 37.419-12.397 54.458-30.155 54.458-41.413 0-10.491-15.873-27.242-50.727-39.239-28.667-9.873-65.949-15.31-104.971-15.31z" fill="#fff"/><path d="M101.724 303.037c-6.143 0-11.664-1.318-16.367-4.036-17.412-10.028-23.446-38.997-16.14-77.489 5.989-31.542 20.664-68.652 41.331-104.497h.009c20.276-35.161 44.691-66.055 68.749-86.995C209.549 3.708 238.01-6.01 255.455 4.053c18.106 10.437 24.106 42.394 15.655 83.4-5.979 29.043-20.303 64.162-40.328 98.889-21.327 36.992-44.358 66.813-66.591 86.256-22.603 19.757-45.019 30.439-62.467 30.439zm21.43-178.756c-19.588 33.964-34.033 70.392-39.642 99.94-6.73 35.449-.276 56.771 9.109 62.18 9.785 5.651 33.339.306 61.997-24.755 21.046-18.397 43.025-46.952 63.564-82.564 19.27-33.416 33.007-67.001 38.679-94.559 7.955-38.609 1.082-62.245-8.669-67.87-9.091-5.23-31.525.143-59.337 24.34-22.876 19.906-46.21 49.485-65.701 83.288z" fill="#fff"/><path d="M239.719 303.164c-16.479 0-37.413-9.964-59.201-28.716-24.339-20.942-49.161-52.197-69.891-88-20.325-35.104-34.897-71.683-41.03-103.007-7.7-39.35-1.892-68.861 15.533-78.943 18.079-10.47 48.767.294 80.07 28.094 22.191 19.703 45.464 49.649 65.534 84.322 21.397 36.942 35.736 71.788 41.473 100.764 7.888 39.813 1.563 71.037-16.491 81.489-4.631 2.681-10.022 3.997-15.997 3.997zM123.215 179.166c19.642 33.924 43.988 64.637 66.788 84.258 27.349 23.536 49.049 28.612 58.428 23.155 9.761-5.649 16.9-28.74 9.506-66.077-5.43-27.427-19.188-60.724-39.785-96.3-19.315-33.364-41.552-62.037-62.61-80.737-29.47-26.17-53.388-32.028-63.124-26.38-9.08 5.252-15.625 27.386-8.546 63.562 5.83 29.782 19.803 64.767 39.343 98.519z" fill="#fff"/></svg>