<svg width="246" height="246" fill="none" xmlns="http://www.w3.org/2000/svg"><path fill-rule="evenodd" clip-rule="evenodd" d="M.394 122.625v122.427h244.855V.197H.394v122.428zm54.146.812l-.078 10.027h31.87v90.558h22.542v-90.558h31.87v-9.833c0-5.441-.116-9.988-.272-10.105-.117-.155-19.511-.233-43.024-.194l-42.792.116-.116 9.989zm158.74-1.45c-4.353-4.509-9.095-7.268-15.313-8.823-4.236-1.049-14.264-1.36-18.578-.544-13.292 2.526-22.503 11.038-25.107 23.242-.739 3.498-.506 12.165.427 15.624 1.127 4.159 3.848 9.133 6.724 12.243 4.975 5.363 10.416 8.744 23.047 14.186 11.038 4.78 14.925 7.073 16.829 9.794 1.477 2.137 1.827 3.381 1.827 6.218 0 3.149-.933 5.286-3.187 7.346-5.286 4.742-16.013 5.325-23.825 1.205-2.72-1.438-7.229-5.752-9.289-8.9l-1.476-2.177-7.035 4.081a2330.816 2330.816 0 01-9.095 5.247c-1.127.661-2.137 1.283-2.254 1.438-.272.466 4.12 6.957 6.374 9.444 5.752 6.374 15.08 11.233 24.913 12.982 4.508.816 14.458.932 18.656.194 13.564-2.293 23.202-9.211 27.089-19.394 3.537-9.367 2.371-21.959-2.837-29.849-4.664-7.074-12.165-12.049-29.694-19.588-9.522-4.12-12.553-6.141-14.186-9.523-.777-1.554-1.049-2.681-1.049-4.586-.039-6.49 4.742-10.377 12.165-9.872 5.052.35 8.356 2.332 11.504 6.918 1.05 1.555 1.982 2.566 2.216 2.41 6.451-4.003 17.101-11.154 17.023-11.465-.272-1.05-3.615-5.442-5.869-7.851z" fill="#fff"/></svg>