<svg width="292" height="304" viewBox="0 0 292 304" fill="none" xmlns="http://www.w3.org/2000/svg">
<g clip-path="url(#clip0_15192_58)">
<path fill-rule="evenodd" clip-rule="evenodd" d="M144.101 0.15918L0.837402 50.3756L22.7238 236.867L144.09 303.172L267.391 235.981L291.214 49.4905L144.101 0.15918ZM55.0479 230.96L144.324 35.54L237.905 231.521L206.032 230.96L186.412 186.312H144.552H144.438H106.325L88.4013 230.4L55.0479 230.96ZM174.728 160.196L144.552 98.148L118.008 160.196H144.336H145.805H174.728Z" fill="white"/>
<path fill-rule="evenodd" clip-rule="evenodd" d="M145 0L292.113 49.3313L268.302 235.923L145 303.001V186.312H186.412L206.032 230.96L237.905 231.521L145 36.9551V0ZM145 160.196V99.0691L174.728 160.196H145.805H145Z" fill="white"/>
</g>
<defs>
<clipPath id="clip0_15192_58">
<rect width="290.377" height="303.002" fill="white" transform="translate(0.837402 0.15918)"/>
</clipPath>
</defs>
</svg>
